<svg xmlns="http://www.w3.org/2000/svg" xmlns:xlink="http://www.w3.org/1999/xlink" preserveAspectRatio="xMidYMid" width="1171" height="299" viewBox="0 0 1171 299">
  <defs>
    <style>

      .cls-2 {
        fill: #353535;
      }
    </style>
  </defs>
  <path d="M1111.160,104.942 C1102.502,104.942 1095.087,107.799 1088.916,113.512 C1082.742,119.225 1079.656,125.890 1079.656,133.507 C1079.656,140.237 1082.200,146.646 1087.288,152.740 C1092.376,158.962 1103.064,166.261 1119.349,174.640 C1139.195,184.923 1152.680,194.825 1159.806,204.347 C1166.802,213.996 1170.301,224.851 1170.301,236.910 C1170.301,253.924 1164.323,268.331 1152.371,280.138 C1140.418,291.944 1125.478,297.848 1107.554,297.848 C1095.599,297.848 1084.188,295.244 1073.318,290.040 C1062.446,284.836 1053.451,277.662 1046.331,268.521 C1046.331,268.521 1063.089,249.479 1063.089,249.479 C1076.705,264.841 1091.147,272.521 1106.418,272.521 C1117.105,272.521 1126.201,269.093 1133.712,262.237 C1141.219,255.382 1144.974,247.321 1144.974,238.053 C1144.974,230.436 1142.492,223.646 1137.532,217.677 C1132.569,211.839 1121.372,204.475 1103.945,195.587 C1085.241,185.940 1072.518,176.419 1065.776,167.022 C1059.033,157.629 1055.662,146.902 1055.662,134.840 C1055.662,119.100 1061.033,106.022 1071.780,95.611 C1082.525,85.203 1096.099,79.996 1112.505,79.996 C1131.578,79.996 1150.782,89.327 1170.110,107.989 C1170.110,107.989 1152.972,125.699 1152.972,125.699 C1138.713,111.863 1124.776,104.942 1111.160,104.942 ZM999.181,256.905 C988.008,270.491 975.472,280.709 961.571,287.564 C947.669,294.420 932.465,297.848 915.963,297.848 C886.637,297.848 861.595,287.216 840.838,265.951 C820.082,244.688 809.703,218.819 809.703,188.351 C809.703,158.519 820.177,133.001 841.124,111.798 C862.071,90.598 887.271,79.996 916.725,79.996 C933.735,79.996 949.127,83.614 962.904,90.851 C976.677,98.087 988.770,108.941 999.181,123.414 C999.181,123.414 999.181,85.328 999.181,85.328 C999.181,85.328 1025.460,85.328 1025.460,85.328 C1025.460,85.328 1025.460,292.516 1025.460,292.516 C1025.460,292.516 999.181,292.516 999.181,292.516 C999.181,292.516 999.181,256.905 999.181,256.905 ZM977.213,129.862 C961.425,113.759 941.992,105.704 918.915,105.704 C904.079,105.704 890.383,109.352 877.829,116.642 C865.273,123.935 855.287,134.176 847.869,147.364 C840.452,160.551 836.744,174.500 836.744,189.208 C836.744,203.793 840.484,217.742 847.965,231.054 C855.445,244.370 865.496,254.736 878.112,262.154 C890.728,269.575 904.266,273.282 918.724,273.282 C933.307,273.282 947.128,269.605 960.190,262.249 C973.249,254.894 983.298,244.941 990.338,232.387 C997.374,219.834 1000.895,205.695 1000.895,189.969 C1000.895,166.005 993.001,145.968 977.213,129.862 ZM751.889,256.905 C740.716,270.491 728.180,280.709 714.279,287.564 C700.377,294.420 685.173,297.848 668.671,297.848 C639.345,297.848 614.303,287.216 593.546,265.951 C572.790,244.688 562.411,218.819 562.411,188.351 C562.411,158.519 572.885,133.001 593.832,111.798 C614.779,90.598 639.979,79.996 669.433,79.996 C686.443,79.996 701.835,83.614 715.612,90.851 C729.385,98.087 741.478,108.941 751.889,123.414 C751.889,123.414 751.889,5.348 751.889,5.348 C751.889,5.348 778.168,5.348 778.168,5.348 C778.168,5.348 778.168,292.516 778.168,292.516 C778.168,292.516 751.889,292.516 751.889,292.516 C751.889,292.516 751.889,256.905 751.889,256.905 ZM729.921,129.862 C714.133,113.759 694.700,105.704 671.623,105.704 C656.787,105.704 643.091,109.352 630.537,116.642 C617.981,123.935 607.995,134.176 600.577,147.364 C593.160,160.551 589.452,174.500 589.452,189.208 C589.452,203.793 593.192,217.742 600.673,231.054 C608.153,244.370 618.204,254.736 630.820,262.154 C643.436,269.575 656.974,273.282 671.432,273.282 C686.015,273.282 699.836,269.605 712.898,262.249 C725.958,254.894 736.006,244.941 743.046,232.387 C750.083,219.834 753.603,205.695 753.603,189.969 C753.603,166.005 745.709,145.968 729.921,129.862 ZM522.021,44.005 C516.079,44.005 510.958,41.848 506.662,37.530 C502.365,33.216 500.217,28.074 500.217,22.105 C500.217,16.012 502.365,10.808 506.662,6.490 C510.958,2.176 516.079,0.016 522.021,0.016 C528.088,0.016 533.271,2.176 537.568,6.490 C541.864,10.808 544.016,16.012 544.016,22.105 C544.016,28.074 541.864,33.216 537.568,37.530 C533.271,41.848 528.088,44.005 522.021,44.005 ZM450.210,5.348 C450.210,5.348 476.870,5.348 476.870,5.348 C476.870,5.348 476.870,292.516 476.870,292.516 C476.870,292.516 450.210,292.516 450.210,292.516 C450.210,292.516 450.210,5.348 450.210,5.348 ZM316.414,297.848 C284.618,297.848 258.642,287.026 238.487,265.379 C218.328,243.736 208.250,218.438 208.250,189.493 C208.250,160.804 217.786,135.920 236.865,114.845 C257.848,91.612 284.365,79.996 316.414,79.996 C348.335,79.996 374.787,91.550 395.773,114.654 C414.848,135.730 424.388,160.676 424.388,189.493 C424.388,218.438 414.307,243.736 394.151,265.379 C373.992,287.026 348.079,297.848 316.414,297.848 ZM373.361,130.650 C357.371,114.273 338.358,106.085 316.319,106.085 C294.152,106.085 275.103,114.273 259.178,130.650 C243.253,147.027 235.291,166.832 235.291,190.064 C235.291,205.046 238.921,219.010 246.184,231.959 C253.444,244.908 263.254,254.906 275.615,261.952 C287.972,268.998 301.540,272.521 316.319,272.521 C331.095,272.521 344.663,268.998 357.023,261.952 C369.380,254.906 379.190,244.908 386.453,231.959 C393.714,219.010 397.347,205.046 397.347,190.064 C397.347,166.832 389.352,147.027 373.361,130.650 ZM154.054,193.683 C154.054,169.816 153.102,153.883 151.197,145.885 C147.895,132.174 141.896,121.861 133.202,114.940 C124.504,108.022 113.111,104.562 99.020,104.562 C82.895,104.562 68.456,109.894 55.697,120.558 C42.938,131.222 34.526,144.427 30.465,160.167 C27.924,170.325 26.656,189.112 26.656,216.534 C26.656,216.534 26.656,292.516 26.656,292.516 C26.656,292.516 -0.004,292.516 -0.004,292.516 C-0.004,292.516 -0.004,5.348 -0.004,5.348 C-0.004,5.348 26.656,5.348 26.656,5.348 C26.656,5.348 26.656,122.462 26.656,122.462 C37.445,108.245 49.317,97.611 62.267,90.565 C75.216,83.519 89.242,79.996 104.352,79.996 C119.839,79.996 133.583,83.933 145.580,91.803 C157.577,99.676 166.432,110.245 172.145,123.509 C177.857,136.777 180.714,157.566 180.714,185.875 C180.714,185.875 180.714,292.516 180.714,292.516 C180.714,292.516 154.054,292.516 154.054,292.516 C154.054,292.516 154.054,193.683 154.054,193.683 ZM535.446,292.516 C535.446,292.516 508.786,292.516 508.786,292.516 C508.786,292.516 508.786,85.328 508.786,85.328 C508.786,85.328 535.446,85.328 535.446,85.328 C535.446,85.328 535.446,292.516 535.446,292.516 Z" id="path-1" class="cls-2" fill-rule="evenodd"/>
</svg>
